<?xml version="1.0" encoding="UTF-8" standalone="no"?>
<!-- Created with Inkscape (http://www.inkscape.org/) -->

<svg
   xmlns:dc="http://purl.org/dc/elements/1.1/"
   xmlns:cc="http://creativecommons.org/ns#"
   xmlns:rdf="http://www.w3.org/1999/02/22-rdf-syntax-ns#"
   xmlns:svg="http://www.w3.org/2000/svg"
   xmlns="http://www.w3.org/2000/svg"
   xmlns:sodipodi="http://sodipodi.sourceforge.net/DTD/sodipodi-0.dtd"
   xmlns:inkscape="http://www.inkscape.org/namespaces/inkscape"
   width="894.31183"
   height="530.26056"
   id="svg2"
   version="1.1"
   inkscape:version="0.48.0 r9654"
   sodipodi:docname="goya.svg">
  <defs
     id="defs4" />
  <sodipodi:namedview
     id="base"
     pagecolor="#ffffff"
     bordercolor="#666666"
     borderopacity="1.0"
     inkscape:pageopacity="0.0"
     inkscape:pageshadow="2"
     inkscape:zoom="0.35"
     inkscape:cx="441.5232"
     inkscape:cy="209.96896"
     inkscape:document-units="px"
     inkscape:current-layer="layer1"
     showgrid="false"
     showguides="true"
     inkscape:guide-bbox="true"
     fit-margin-top="0"
     fit-margin-left="0"
     fit-margin-right="0"
     fit-margin-bottom="0"
     inkscape:window-width="1280"
     inkscape:window-height="738"
     inkscape:window-x="-8"
     inkscape:window-y="-8"
     inkscape:window-maximized="1" />
  <metadata
     id="metadata7">
    <rdf:RDF>
      <cc:Work
         rdf:about="">
        <dc:format>image/svg+xml</dc:format>
        <dc:type
           rdf:resource="http://purl.org/dc/dcmitype/StillImage" />
        <dc:title></dc:title>
      </cc:Work>
    </rdf:RDF>
  </metadata>
  <g
     inkscape:label="Capa 1"
     inkscape:groupmode="layer"
     id="layer1"
     transform="translate(126.5772,316.89588)">
    <g
       id="g2997"
       transform="matrix(1.9440458,0,0,1.9440458,119.49468,299.16422)">
      <path
         sodipodi:nodetypes="cssssccccscscsssssssssscssssssssccssssssscccssssccsssccscssssssssscsssssscscsssccsscccscssscscssscsssccccsscccsscssssssssccssccsscssscscsssssssssssscscsssssssscsscssssssssssssssssssssssscsssssscssssssscsssscsscsssssscsssssscssssssscssssccsccsssssssssssscccsssssccssssssscssscsssssssscsssscsssssssssscsscsssssscssssscsssscsssssssssssssssssssssssscssssssssssssssssssssscsssssssssssssssssssssssscssssssssscssscssscsssssssssscsssssssssssssssssssssscsssssscsssssssssssscsscscssscssssssssssssscccscscssssssssscsssssssssssssssssscsscssssssssssccsssssscsscssscssssssssssssssssscssssssssscssscssssssssssssssscssssssssssssssssssssssssscsccsssssssscsssssscscsscssscsssssscsssssssscscsscscscscscssssssssssssssssscsssccsccscsccssccssccsssccccsscccsssscccscscsscssscsssccsscccssssssssssssssssscssssssssscscccscccccccccscccsssssssscscscscsccscscssssccscssscsscssccscccccscsscsscscssscscssccscscccscccsssssssssscsssssccsssssscsccccsccscsscss"
         inkscape:connector-curvature="0"
         id="path2995"
         d="m -4.2926888,-45.115342 c -1.09353,-0.82646 -1.59563,-1.51695 -1.11579,-1.53445 0.47985,-0.0175 0.31225,-0.7068 -0.37244,-1.5318 -0.86114,-1.03761 -0.92985,-1.88533 -0.22291,-2.75 0.66265,-0.81049 0.7144,-3.17495 0.14718,-6.72474 -0.52764,-3.30215 -0.50635,-5.84318 0.0537,-6.40319 0.57128,-0.57128 0.54398,-1.64688 -0.071,-2.79593 -0.54969,-1.02711 -0.71489,-2.32789 -0.3671,-2.89061 0.34778,-0.56273 0.0963,-1.66903 -0.55887,-2.45844 -0.87126,-1.04981 -0.91042,-2.24073 -0.14581,-4.4341 0.72891,-2.09095 0.72736,-3.19532 -0.005,-3.64802 -0.57974,-0.3583 -0.81147,-2.12212 -0.51711,-3.93605 0.32815,-2.02215 -0.002,-3.99327 -0.85798,-5.12287 -1.50759,-1.98925 -1.9808802,-8.33605 -0.62177,-8.33605 0.45834,0 0.83334,-1.35 0.83334,-2.999998 0,-1.94476 -0.50663,-3 -1.44033,-3 -0.8694402,0 -1.2121702,-0.59453 -0.8647102,-1.5 0.7764002,-2.02328 -3.86562,-2.00709 -7.76625,0.0271 -1.59754,0.83312 -4.29754,1.42108 -6,1.30658 -1.70246,-0.1145 -4.33513,0.60432 -5.85039,1.59737 -2.13252,1.3976 -3.07082,1.54346 -4.15275,0.64553 -0.87451,-0.72577 -1.52774,-0.78663 -1.74499,-0.16257 -0.43479,1.24892 -13.14869,1.50065 -17.84725,0.35337 -1.925,-0.47004 -3.54349,-1.50998 -3.59665,-2.31098 -0.0532,-0.80101 -0.4471,-2.26549 -0.87543,-3.25441 -0.52692,-1.21657 -0.23029,-2.19911 0.91725,-3.03821 0.93282,-0.68209 1.61097,-1.67297 1.50701,-2.20196 -0.41965,-2.1353 0.1259,-2.64188 1.56176,-1.45022 1.4536,1.20638 4.77586,1.02299 13.98606,-0.77205 1.65,-0.32158 5.25,-0.51298 8,-0.42533 5.70815,0.18194 4.6807,0.2011 14.5,-0.27047 13.6889002,-0.65741 22.4594199,-1.51239 25.9933999,-2.53392 4.5262101,-1.30834 8.7168201,-1.28769 9.5417301,0.047 0.35923,0.58125 0.39328,2.09226 0.0756,3.35778 -0.71571,2.85163 -7.70958,5.73735 -14.1407501,5.83457 -6.1824097,0.0935 -6.9112097,1.31062 -6.0029497,10.025528 1.0888097,10.44736 1.1652197,20.03535 0.1710397,21.46255 -0.4740297,0.68049 -0.5328097,2.03049 -0.1306297,3 0.4021797,0.9695 0.6434597,6.85057 0.5361597,13.06903 -0.11701,6.78126 0.22866,11.81689 0.86369002,12.58205 0.75296,0.90727 0.69923,1.76744 -0.18605002,2.97814 -1.1176797,1.52851 -1.4479097,1.54891 -3.2330597,0.19976 z m 176.4728788,-1.13899 c -0.7145,-1.33499 -1.70335,-2.42726 -2.19748,-2.42726 -0.49412,0 -0.6059,-0.92159 -0.2484,-2.04799 0.3575,-1.12639 0.10773,-2.70139 -0.55506,-3.5 -0.66278,-0.7986 -0.91459,-1.45201 -0.55956,-1.45201 0.35502,0 -0.0916,-1.125 -0.99257,-2.5 -1.50954,-2.30385 -1.51135,-2.69339 -0.0231,-4.96482 2.09077,-3.19091 2.03611,-3.80361 -0.2739,-3.07044 -1.72615,0.54786 -1.85485,0.12287 -1.49363,-4.93261 0.24448,-3.42156 -0.002,-5.53213 -0.64627,-5.53213 -0.70172,0 -0.68115,-0.67342 0.063,-2.06392 0.80836,-1.51043 0.80477,-2.42517 -0.0134,-3.41097 -0.75301,-0.90733 -0.78252,-1.55437 -0.0904,-1.98213 1.44499,-0.89305 -3.0142,-7.44807 -4.64182,-6.8235 -0.70875,0.27198 -1.28863,0.0267 -1.28863,-0.5451 0,-0.57178 -0.9,-1.32525 -2,-1.67438 -1.47933,-0.46952 -2,-1.51303 -2,-4.00837 0,-3.573878 1.70777,-5.582508 2.9868,-3.512978 0.55188,0.892958 0.95538,0.923918 1.4573,0.1118 0.38175,-0.61769 1.113,-0.86418 1.625,-0.54774 0.51199,0.31643 0.9309,0.0988 0.9309,-0.48369 0,-0.58246 0.61055,-1.05902 1.35677,-1.05902 1.02365,0 1.30244,-1.56556 1.13547,-6.37631 -0.12173,-3.50697 -0.53383,-6.88197 -0.9158,-7.5 -0.38185,-0.61803 -0.21781,-1.12369 0.36465,-1.12369 0.58246,0 1.05902,0.54 1.05902,1.2 0,0.89377 0.28907,0.91093 1.13278,0.0672 1.42798,-1.42798 0.30141,-4.6536 -1.28324,-3.67423 -0.79217,0.48959 -0.99397,0.0673 -0.63104,-1.32053 0.33512,-1.28151 -0.17997,-2.65121 -1.38503,-3.68302 -1.05521,-0.9035 -1.64597,-2.08381 -1.31278,-2.62291 0.33318,-0.5391 -0.37177,-2.35302 -1.56655,-4.03093 -2.52899,-3.55165 -1.87752,-5.08122 1.03973,-2.44115 1.13562,1.02775 2.00613,1.31437 2.00613,0.66056 0,-0.63525 -0.45,-1.15499 -1,-1.15499 -1.52968,0 -1.18896,-1.99026 0.44828,-2.61853 4.70521,-1.80555 9.92623,12.21804 9.65433,25.93146 -0.088,4.42099 0.1845,5.62767 1.1366,5.03922 0.6886,-0.42554 3.2789,-1.11183 5.7564,-1.52507 10.2459,-1.70907 11.6137,-2.01404 14.0044,-3.12253 5.7654,-2.67323 9.9434,-5.81419 11.188,-8.41092 1.8021,-3.76006 4.4813,-4.11343 5.9953,-0.79074 0.9442,2.07247 0.9393,3.07116 -0.023,4.61188 -0.6755,1.08162 -0.9427,2.42857 -0.5937,2.99322 0.349,0.56464 -0.3108,1.27382 -1.4661,1.57595 -1.1554,0.30213 -2.1006,0.95798 -2.1006,1.45744 0,0.49947 -1.0125,1.34591 -2.25,1.88098 -1.2375,0.53508 -2.925,1.38576 -3.75,1.89041 -5.2601,3.21752 -19.1874,6.926878 -26.5358,7.067418 -1.2298,0.0235 -1.4197,4.01981 -0.1909,4.01981 0.4646,0 0.6037,0.38986 0.3093,0.86635 -0.8204,1.32737 2.5381,3.83045 6.1774,4.60402 3.5156,0.74727 7.6922,2.52966 13.24,5.65021 1.925,1.08279 5.075,2.70053 7,3.59498 11.1823,5.19586 12.8505,6.10057 12.2874,6.66371 -0.3414,0.3414 0.1343,0.62073 1.0572,0.62073 0.9229,0 4.315,1.8 7.538,4 3.223,2.2 6.3128,4 6.8662,4 1.7021,0 3.4953,2.7311 2.2845,3.47937 -1.3659,0.84418 -10.9382,-3.6127 -10.9924,-5.11808 -0.022,-0.62629 -1.5707,-1.4257 -3.4405,-1.77646 -1.8697,-0.35077 -3.9664,-1.32085 -4.6593,-2.15575 -0.8569,-1.03256 -2.1682,-1.31847 -4.1005,-0.89408 -1.8753,0.41188 -2.8406,0.22071 -2.8406,-0.56253 0,-0.65255 -0.6606,-0.93296 -1.468,-0.62313 -0.8074,0.30982 -1.7218,0.15262 -2.032,-0.34934 -0.3103,-0.50196 -1.2247,-0.65916 -2.0321,-0.34934 -0.8073,0.30983 -1.4679,0.13403 -1.4679,-0.39066 0,-1.44561 -3.5724,-5.26 -4.9263,-5.26 -0.6555,0 -0.9136,0.45 -0.5737,1 1.0309,1.66798 -1.1447,1.13267 -6.096,-1.5 -2.586,-1.375 -5.705,-2.5 -6.931,-2.5 -1.226,0 -2.909,-1.0125 -3.7401,-2.25 -1.4744,-2.19542 -1.5284,-2.1365 -2.2249,2.429 -0.3926,2.57345 -0.4686,5.07578 -0.1689,5.56072 0.2997,0.48495 0.8335,6.47933 1.1861,13.32084 0.3526,6.84152 0.8633,12.66132 1.1349,12.93289 0.2716,0.27157 1.797,-1.07836 3.3899,-2.99984 1.5929,-1.92149 2.9083,-2.90153 2.9231,-2.17787 0.038,1.86951 -2.0177,5.53829 -3.6401,6.49572 -0.7563,0.4463 -1.1697,1.14374 -0.9187,1.54985 0.251,0.40611 -0.356,1.24572 -1.3489,1.8658 -1.5004,0.93701 -2.0247,0.7175 -3.1043,-1.29985 z m -137.727289,-7.17726 c -0.9536,-2.0625 -2.10588,-4.02292 -2.56061,-4.35648 -0.45474,-0.33356 -0.72127,-1.23356 -0.59229,-2 0.12899,-0.76644 -0.0961,-2.14586 -0.5002,-3.06538 -0.4041,-0.91952 -0.2308,-2.61345 0.3851,-3.76427 0.87235,-1.63 0.83474,-2.03401 -0.17017,-1.82814 -0.85755,0.17568 -1.29094,-0.90902 -1.29282,-3.23573 -0.002,-1.925 -0.42,-4.14844 -0.92988,-4.94098 -0.6118,-0.95096 -0.52466,-1.57512 0.25623,-1.83541 0.6508,-0.21694 0.84298,-0.9185 0.42705,-1.55902 -0.41593,-0.64052 -0.75623,-2.02533 -0.75623,-3.07735 0,-1.08355 -1.28764,-2.62898 -2.97023,-3.56487 -3.00974,-1.67409 -4.52891,-5.06041 -3.72371,-8.30041 0.27068,-1.08921 1.07182,-1.58922 2.0679,-1.29064 2.48158,0.74386 5.52656,-1.97707 4.62553,-4.133278 -0.41324,-0.98892 -0.92203,-4.48532 -1.13063,-7.76978 -0.2086,-3.28445 -1.22047,-7.67195 -2.2486,-9.75 -1.41624,-2.86247 -1.54822,-3.77826 -0.54449,-3.77826 0.72867,0 1.77413,-0.7875 2.32325,-1.75 0.9087,-1.59279 1.23981,-1.61525 3.68576,-0.25 2.12971,1.18873 3.06869,2.95257 4.52498,8.5 1.0107,3.85 1.84946,8.4625 1.86393,10.25 0.0245,3.0319 0.25722,3.25 3.46729,3.25 1.89254,0 3.7264,-0.46182 4.07525,-1.02626 0.34884,-0.56444 2.10594,-0.92714 3.90467,-0.80601 3.70491,0.24952 8.15266,-2.65232 10.66001,-6.95491 0.86951,-1.49205 2.33069,-2.85806 3.24709,-3.03558 2.04381,-0.39592 3.99901,4.17017 3.08512,7.20484 -0.89389,2.96825 -5.35367,7.510508 -8.91312,9.077968 -7.11869,3.1348 -11.76755,4.53995 -15.02024,4.53995 -4.73282,0 -4.88212,3.23221 -0.22976,4.97441 1.7875,0.66938 6.4,2.75099 10.25,4.62581 3.85,1.87481 7.31494,3.40673 7.69987,3.40426 0.38493,-0.002 2.63493,1.284 5,2.85881 2.36507,1.57481 6.49933,4.07534 9.18724,5.55674 6.80905,3.75269 9.54482,5.86245 9.58147,7.38899 0.0192,0.80048 -0.45418,1.00499 -1.21858,0.52643 -0.6875,-0.43042 -1.7,-0.80852 -2.25,-0.84022 -1.80633,-0.10411 -8.2411,-3.2673 -8.93694,-4.3932 -0.3746,-0.60611 -1.77954,-1.10203 -3.12208,-1.10203 -1.34254,0 -2.44098,-0.45 -2.44098,-1 0,-0.55 -1.125,-1 -2.5,-1 -1.375,0 -2.5,-0.40787 -2.5,-0.90638 0,-0.49851 -0.94334,-0.65969 -2.0963,-0.35818 -1.48679,0.3888 -2.83397,-0.29263 -4.63333,-2.34362 -1.63227,-1.86054 -2.69751,-2.44604 -2.98703,-1.64182 -0.48129,1.3369 -3.28334,1.75858 -3.28334,0.49411 0,-0.93252 -4.57785,-2.88892 -8.16189,-3.48808 -2.46555,-0.41218 -2.6334,-0.21674 -2.27551,2.64948 0.21251,1.70197 0.67125,7.12793 1.01942,12.05768 0.53092,7.51731 0.83511,8.68683 1.88575,7.25 1.5332,-2.09678 2.95468,-2.25646 2.18289,-0.24522 -0.30982,0.80739 -0.12143,1.74108 0.41864,2.07486 0.82002,0.5068 -4.42453,6.45717 -5.69123,6.45717 -0.22574,0 -1.19065,-1.6875 -2.14425,-3.75 z m 86.288369,-1 c 1.16565,-2.77092 1.32707,-12.62303 0.22938,-14 -0.67838,-0.85099 -0.57889,-1.75314 0.31168,-2.82622 0.86801,-1.04587 0.9601,-1.80291 0.2737,-2.25 -0.56894,-0.37058 -1.08212,-1.34878 -1.1404,-2.17378 -0.0583,-0.825 -0.26732,-3.76952 -0.46453,-6.54337 -0.19722,-2.77385 -0.64412,-5.50539 -0.99311,-6.07007 -1.47171,-2.38128 -1.59569,-6.38656 -0.19769,-6.38656 1.04905,0 1.25153,-0.82987 0.79293,-3.25 -0.33872,-1.7875 -0.95584,-3.924998 -1.37139,-4.749998 -0.41554,-0.825 -0.6805,-3.67697 -0.58879,-6.33772 0.12815,-3.71826 -0.24293,-5.05697 -1.60362,-5.78518 -1.19624,-0.64022 -1.77035,-0.58991 -1.77035,0.1551 0,0.69721 -0.82722,0.82901 -2.25,0.3585 -1.2375,-0.40924 -10.125,-0.84518 -19.749997,-0.96875 -21.548532,-0.27667 -20.000002,-0.12786 -20.000002,-1.92195 0,-0.93333 0.94444,-1.5 2.5,-1.5 1.375,0 2.5,-0.5051 2.5,-1.12244 0,-0.75139 0.52107,-0.69 1.57622,0.18569 1.22777,1.01896 1.74283,1.03854 2.32995,0.0886 0.41455,-0.67076 1.50525,-0.93118 2.42378,-0.57871 1.0351,0.3972 1.67005,0.14394 1.67005,-0.66613 0,-0.97545 0.2881,-1.01889 1.13571,-0.17128 0.84762,0.84762 1.510372,0.76107 2.612642,-0.3412 1.30256,-1.30257 1.75876,-1.29226 3.86429,0.0873 2.23398,1.46376 2.38736,1.43946 2.38736,-0.37819 0,-1.75141 0.35782,-1.84365 3.63833,-0.93785 2.001077,0.55252 3.913577,0.62608 4.249997,0.16345 0.92672,-1.27435 16.11167,-1.53327 16.11167,-0.27469 0,0.63675 2.46155,0.99576 6.25,0.91154 8.66898,-0.19273 27.75746,0.70804 28.38908,1.33965 0.2864,0.2864 -0.23927,1.68064 -1.16816,3.0983 -2.1697,3.31138 -7.84824,4.84192 -15.23026,4.10503 -12.36545,-1.23435 -12.46025,-1.21684 -11.21055,2.07014 0.54404,1.43092 0.60958,3.24221 0.14721,4.06841 -0.46611,0.83291 -0.35297,3.38133 0.25673,5.78256 1.42435,5.609688 0.97006,39.483928 -0.56421,42.069818 -0.32633,0.55 -0.88911,2.2375 -1.25063,3.75 -0.45703,1.91206 -1.29352,2.75 -2.74525,2.75 -1.60229,0 -1.91671,-0.40704 -1.35177,-1.75 z m -105.584879,-7 c -0.52726,-1.5125 -0.84136,-3.10391 -0.69798,-3.53647 0.14337,-0.43257 -0.22889,-1.10757 -0.82724,-1.5 -1.24601,-0.81722 -3.41209,-8.85178 -3.41209,-12.65635 0,-1.40645 -0.3529801,-2.55718 -0.7843901,-2.55718 -0.43142,0 -1.57036,-1.33053 -2.53098,-2.95673 -1.09105,-1.847 -2.29156,-2.7476 -3.19861,-2.39953 -1.21409,0.46589 -1.27371,0.0457 -0.36384,-2.56438 1.34353,-3.85405 3.93827,-5.39186 7.0623501,-4.1856 2.68831,1.038 7.02619,5.42196 6.64867,6.71929 -0.14196,0.48782 0.32276,1.93575 1.0327,3.21762 0.70995,1.28187 1.5031,4.43187 1.76257,7 1.57974,15.63587 1.59024,16.41617 0.23243,17.27646 -2.41593,1.53069 -3.94344,0.95453 -4.92359,-1.85713 z m 216.229399,0.75 c 0.5033,-1.51005 2.1114,-1.66567 2.5833,-0.25 0.2292,0.6875 -0.3333,1.25 -1.25,1.25 -0.9167,0 -1.5167,-0.45 -1.3333,-1 z m -91.66778,-11.64392 c -0.66516,-0.66517 -2.69486,-2.11277 -4.51044,-3.21689 -4.02127,-2.44547 -6.85293,-9.07592 -4.45028,-10.42051 0.80398,-0.44993 1.46179,-1.6345 1.46179,-2.63237 0,-2.01777 6.65458,-7.08631 9.30375,-7.08631 1.00677,0 1.69625,0.78142 1.69625,1.92245 0,1.32959 1.13907,2.29837 3.69366,3.14146 2.03151,0.67046 4.57458,2.03973 5.65127,3.04282 1.61987,1.50913 1.73786,2.08858 0.6839,3.35853 -1.16223,1.40041 -0.74607,1.96378 1.22117,1.65316 1.39747,-0.22065 0.76,5.62839 -0.75,6.88158 -0.825,0.68469 -1.5,1.91293 -1.5,2.72943 0,0.86275 -0.58732,1.25917 -1.40223,0.94646 -0.77123,-0.29595 -1.68174,-0.25858 -2.02336,0.083 -1.12782,1.12781 -7.84289,0.82973 -9.07548,-0.40285 z m 9.46538,-9.22676 c 0.67938,-1.30387 0.8155,-2.11127 0.30251,-1.79422 -0.513,0.31705 -2.59086,-0.55029 -4.61747,-1.9274 -3.88866,-2.64242 -5.64935,-2.47759 -5.64935,0.52887 0,2.20922 2.51296,4.48247 3.96387,3.58576 0.57831,-0.35741 1.77659,0.0753 2.66285,0.96153 0.88626,0.88626 1.72185,1.47745 1.85687,1.31376 0.13503,-0.16369 0.80135,-1.36442 1.48072,-2.6683 z M 5.2190809,-97.610162 c 0,-0.51072 -0.74798,-1.67655 -1.66218,-2.590748 -2.23612,-2.23612 -0.33765,-3.44469 5.44356,-3.46537 4.7503801,-0.017 6.0774801,1.51137 4.2604401,4.906548 -0.7976,1.49033 -2.09222,2.07814 -4.5770001,2.07814 -1.90565,0 -3.46482,-0.41786 -3.46482,-0.92857 z M -114.16766,-102.94377 c -0.29237,-0.47307 -0.24404,-2.00583 0.10741,-3.40612 0.39539,-1.57534 0.21851,-2.54599 -0.46396,-2.54599 -0.70025,0 -0.89945,-1.28058 -0.54557,-3.50727 0.39497,-2.48522 0.14872,-3.6641 -0.84503,-4.04543 -0.88937,-0.34129 -1.46654,-2.25922 -1.57771,-5.24273 -0.0964,-2.58751 -0.37532,-5.37957 -0.6198,-6.20457 -0.24448,-0.825 -0.70047,-3.73128 -1.01331,-6.4584 -0.31284,-2.72712 -1.06039,-5.26222 -1.66122,-5.63356 -0.78329,-0.4841 -0.79975,-3.18413 -0.0582,-9.54159 0.56884,-4.87655 0.67027,-9.31645 0.2254,-9.86645 -0.98379,-1.21627 -0.70685,-9.57711 0.37522,-11.32794 0.42819,-0.69282 0.23944,-1.90923 -0.41945,-2.70313 -0.65888,-0.7939 -0.9479,-2.09512 -0.64226,-2.89159 0.30563,-0.79647 0.0513,-1.61626 -0.56518,-1.82175 -0.67151,-0.22384 -0.78632,-0.91494 -0.28637,-1.72387 0.84573,-1.36842 0.85731,-7.83319 0.0448,-25.03172 -0.24683,-5.225 -0.38264,-12.65 -0.30181,-16.5 0.27267,-12.98713 -0.22621,-24.79807 -1.0941,-25.90245 -0.47431,-0.60365 -1.14431,-6.94755 -1.48882,-14.09755 -0.34451,-7.15 -0.92486,-18.35752 -1.28968,-24.9056 -0.49569,-8.8973 -0.37113,-11.72502 0.49297,-11.19098 0.69173,0.42751 1.15627,3.44839 1.15627,7.51911 0,7.09446 1.4974,16.97449 2.76486,18.24286 0.80944,0.81002 0.63136,-16.71527 -0.18323,-18.03331 -0.93297,-1.50957 1.48194,-8.13208 2.96537,-8.13208 0.99132,0 1.49059,-1.19153 1.57131,-3.75 0.19741,-6.25675 1.28061,-9.70314 3.16369,-10.06579 1.53699,-0.296 1.68183,0.18977 1.11448,3.73779 l -0.6521,4.078 3.59263,0 c 3.7332,0 6.37272,2.70809 5.31814,5.45629 -0.27437,0.715 -0.0769,1.72193 0.43876,2.23762 0.51569,0.5157 1.32371,6.11066 1.7956,12.43326 0.47189,6.32259 1.31186,12.368 1.86661,13.43423 2.204218,4.23649 3.042638,11.36661 2.833968,24.10067 -0.12022,7.33586 -0.0692,13.33793 0.11334,13.33793 0.18254,0 1.78645,-1.49375 3.56424,-3.31944 2.10312,-2.15981 3.11897,-4.09441 2.90783,-5.53775 -0.28633,-1.95737 -0.005,-2.13803 2.39474,-1.53583 2.56977,0.64498 2.681,0.53018 2.02375,-2.08852 -0.64401,-2.56592 -0.50419,-2.73445 1.889,-2.27696 2.08587,0.39874 3.49438,-0.42727 7.30075,-4.28147 8.07338,-8.17481 23.97426,-25.31525 26.40114,-28.45924 1.27332,-1.64956 4.22511,-5.02456 6.55953,-7.5 2.33443,-2.47543 4.24693,-4.79847 4.25,-5.1623 0.003,-0.36383 4.23018,-4.97633 9.39358,-10.25 5.99983,-6.12797 10.15022,-9.58849 11.5,-9.58849 2.56966,0 2.64995,0.73564 0.36201,3.31677 -1.70396,1.92231 -1.68752,1.94143 0.625,0.72666 1.90317,-0.99974 2.84683,-0.99508 4.75,0.0235 2.40344,1.28628 3.18948,2.9331 1.4,2.9331 -0.54308,0 -0.71743,1.28786 -0.39356,2.9072 0.47248,2.36239 0.10415,3.21994 -1.9654,4.57597 -1.40077,0.91781 -2.68616,2.63581 -2.85644,3.81776 -0.17028,1.18195 -1.319,2.65022 -2.55271,3.26282 -3.4929,1.73439 -6.30204,4.61589 -7.71714,7.91595 -0.71233,1.66116 -3.37518,5.1657 -5.91744,7.78786 -2.54227,2.62216 -4.62231,5.12843 -4.62231,5.5695 0,0.44106 -2.3625,3.3146 -5.25,6.38564 -2.8875,3.07104 -7.95,8.62377 -11.25,12.33941 -3.3,3.71564 -7.43682,8.24851 -9.19292,10.07305 -1.75611,1.82455 -2.78827,3.56745 -2.29368,3.87312 0.49459,0.30567 0.65691,1.18731 0.36071,1.9592 -0.39528,1.03006 0.29381,1.37976 2.59017,1.31447 4.38459,-0.12466 5.17333,1.0885 5.58195,8.58553 0.29976,5.49963 0.94926,7.50317 3.95618,12.20373 1.97864,3.09313 4.70005,6.81287 6.04756,8.26611 1.34752,1.45323 2.45003,3.44846 2.45003,4.43385 0,0.98538 0.675,2.05062 1.5,2.3672 0.825,0.31659 1.5,1.26218 1.5,2.10132 0,0.83915 0.7875,2.25984 1.75,3.1571 1.93083,1.79996 3.96045,4.79058 4.82068,7.10321 0.54956,1.47743 4.64057,10.05313 5.23369,10.97104 0.93826,1.45203 1.99314,-3.02146 1.68309,-7.13756 -0.1986,-2.63645 0.0182,-5.02798 0.48184,-5.31451 0.9602,-0.59343 0.1687,-4.51897 -0.91115,-4.51897 -0.38972,0 -0.53627,-3.0375 -0.32565,-6.75 0.6046,-10.65715 0.45032,-32.20843 -0.26071,-36.41696 -0.43135,-2.55315 -0.27258,-3.83304 0.4755,-3.83304 0.78686,0 0.8237,-0.55938 0.12308,-1.86852 -0.55,-1.02768 -0.73026,-2.13825 -0.40058,-2.46793 0.32968,-0.32968 0.0239,-1.98888 -0.67955,-3.68712 -0.96021,-2.31815 -0.99376,-3.37291 -0.13461,-4.23206 1.79694,-1.79694 1.3749,-2.53483 -1.85563,-3.24437 -4.26725,-0.93725 -3.71502,-2.5 0.88342,-2.5 3.3506,0 3.94915,-0.3438 4.36244,-2.50578 0.26345,-1.37819 0.0642,-4.78808 -0.44281,-7.57755 -0.50701,-2.78947 -0.74928,-6.04937 -0.53838,-7.24422 0.36462,-2.06579 0.42516,-2.07801 1.233,-0.24884 0.46725,1.05798 1.65757,2.73163 2.64516,3.71922 1.72748,1.72748 1.78301,1.647 1.46353,-2.12118 -0.32864,-3.87632 -0.2999,-3.91165 2.78079,-3.41922 1.71207,0.27366 4.29992,0.67873 5.75077,0.90016 1.72956,0.26395 3.24531,-0.26858 4.40179,-1.54647 1.3555503,-1.49786 2.0797003,-1.68695 3.1281603,-0.8168 0.91318,0.75787 3.26027,0.88495 7.09821001,0.38434 3.15365999,-0.41136 6.41682999,-0.83127 7.25149999,-0.93313 0.83467,-0.10187 1.95967,-0.45131 2.5,-0.77655 0.9891297,-0.59539 12.1206997,-2.1504 13.9824197,-1.95327 3.83666,0.40627 7.5,1.50663 7.5,2.25279 0,0.48758 0.60277,0.8865 1.33948,0.8865 0.73672,0 1.85207,1.125 2.47857,2.5 0.9957,2.18534 0.90182,2.5 -0.74587,2.5 -1.39206,0 -1.7483,0.52251 -1.36239,1.99823 0.45861,1.75373 0.15735,1.9252 -2.46201,1.40133 -2.14053,-0.42811 -3.37529,-0.11328 -4.36617,1.11325 -4.0725,5.04099 -6.97605,7.54686 -8.00658,6.90996 -0.76906,-0.47531 -0.38316,-1.28519 1.17098,-2.45748 2.17944,-1.64395 2.20252,-1.77173 0.38603,-2.13646 -1.06262,-0.21336 -3.16381,0.21797 -4.6693,0.95851 -1.5055,0.74054 -3.193,1.06478 -3.75,0.72053 -1.04841,-0.64795 -1.3892397,0.62147 -1.04171,3.87985 0.31349,2.93915 -1.6073397,3.45533 -11.03184969,2.96459 -8.23061001,-0.42858 -8.84840001,-0.32 -10.34623031,1.81845 -0.87612,1.25084 -1.59295,3.07413 -1.59295,4.05175 0,0.97762 -0.45,1.77749 -1,1.77749 -0.55,0 -1,0.45 -1,1 0,0.55 0.68357,1 1.51905,1 1.04292,0 1.37701,0.70524 1.06588,2.25 -1.22537,6.08391 -1.45583,8.71176 -0.79956,9.11735 0.39593,0.2447 2.31914,-0.1049 4.2738103,-0.77689 3.26294,-1.12174 11.20468,-1.88403 19.9408197,-1.91403 1.925,-0.007 6.2,0.52082 9.5,1.17207 3.3,0.65125 7.4625,1.42215 9.25,1.71311 1.7875,0.29096 3.25,1.10758 3.25,1.81472 0,0.70714 1.07529,1.86119 2.38954,2.56456 2.55483,1.3673 4.61046,4.95523 4.61046,8.04715 0,2.49131 -1.72982,3.48108 -3.50665,2.00644 -1.1309,-0.93857 -1.90674,-0.65147 -3.82087,1.41391 -2.87338,3.10043 -3.28772,3.17093 -3.94156,0.67065 -0.43975,-1.68159 -1.35769,-1.89965 -7.36663,-1.75 l -6.86429,0.17096 -0.31037,3.75 c -0.1707,2.0625 -0.4789,3.75 -0.6849,3.75 -0.20599,0 -1.52883,-0.43886 -2.93963,-0.97525 -1.4108097,-0.53639 -2.5651097,-0.64889 -2.5651197,-0.25 -2e-5,0.39889 -2.74803,0.68342 -6.1067,0.63229 -14.3935903,-0.21909 -18.2636803,1.16383 -15.8545103,5.6654 0.56738,1.06016 0.66642,1.92756 0.2201,1.92756 -0.94965,0 -0.94848,8.64372 10e-4,9.5935 1.56012,1.56013 3.4060003,-2.37367 3.21909,-6.86029 -0.20869,-5.00969 0.7483703,-6.04491 2.5229803,-2.72903 1.31358,2.45445 -0.3807,9.90234 -2.6533603,11.66386 -1.18484,0.91837 -1.2688,1.61308 -0.39274,3.25 0.61282,1.14508 1.5749503,2.08196 2.1380603,2.08196 0.56311,0 0.70275,0.51953 0.31031,1.15451 -0.42345,0.68515 -0.27617,0.88421 0.36226,0.48964 1.62759,-1.00591 7.21303001,-1.48586 7.72128001,-0.66348 0.2458,0.39771 3.72404999,0.0936 7.72942999,-0.67573 4.0053897,-0.76937 8.3057597,-1.21307 9.5563897,-0.986 1.25062,0.22706 2.47887,0.0811 2.72943,-0.32427 0.25055,-0.40541 1.83156,-0.5769 3.51334,-0.38109 1.99658,0.23247 3.24955,-0.14368 3.61032,-1.08383 0.41846,-1.0905 1.80457,-1.3194 5.71278,-0.94338 6.73434,0.64792 9.33373,2.03817 10.59943,5.66898 0.66359,1.90356 1.53395,2.77708 2.42599,2.43477 1.88908,-0.72491 3.50814,1.07838 2.93522,3.26921 -0.43181,1.65127 -1.72312,2.02246 -7.45794,2.14382 -0.91166,0.0193 -2.4439,0.90397 -3.40499,1.96596 -2.10478,2.32576 -3.10275,2.40845 -5.0895,0.4217 -0.83005,-0.83006 -1.93677,-1.24493 -2.45937,-0.92195 -1.01092,0.62478 -4.97226,1.16896 -13.88858,1.9079 -3.025,0.2507 -5.5,0.50074 -5.5,0.55564 0,0.0549 -2.2272197,0.22671 -4.9493697,0.38181 -2.72215,0.1551 -5.12214999,0.80035 -5.33332999,1.4339 -0.21118,0.63354 -1.21991,1.15189 -2.24162001,1.15189 -1.0217,0 -2.13576,0.45 -2.47568,1 -0.33992,0.55 -1.49148,1 -2.55902,1 -1.10405,0 -1.94098,0.68271 -1.94098,1.58333 0,2.36638 -2.4493703,1.10481 -2.8252503,-1.45516 -0.26114,-1.77852 -0.75394,-2.07706 -2.5,-1.5145 -1.19611,0.38538 -2.62475,0.6093 -3.17475,0.49761 -0.55,-0.11169 -3.58658,-0.44902 -6.74794,-0.74961 l -5.74795,-0.54653 3.49795,6.1885 c 1.92386,3.40367 3.49794,6.73026 3.49794,7.39243 0,0.66216 0.47362,1.67755 1.05249,2.25642 0.57887,0.57887 1.19437,2.13137 1.36777,3.45 0.40607,3.08789 1.2993,5.66735 3.25423,9.39751 0.86475,1.65 1.77303,4.42225 2.01841,6.16055 0.3608,2.5559 0.0409,3.28918 -1.67234,3.83292 -1.28224,0.40697 -3.07783,0.0438 -4.54882,-0.92003 -1.33668,-0.87583 -3.56098,-1.68599 -4.94289,-1.80036 -2.0742,-0.17167 -2.79546,-1.08597 -4.13407,-5.24051 -0.89184,-2.76792 -2.75959,-7.05757 -4.15056,-9.53257 -1.39097,-2.475 -3.5345,-6.42386 -4.7634,-8.77524 -1.87908,-3.59545 -2.31857,-3.95322 -2.76397,-2.25 -0.76122,2.9109 -3.56905,2.49379 -4.87882,-0.72476 -5.14303,-12.6382 -5.26406,-12.92714 -8.06386,-19.25 -1.33949,-3.025 -3.52203,-7.975 -4.8501,-11 -2.2027,-5.01718 -7.66424,-14.78584 -8.94541,-16 -0.29018,-0.275 -1.64159,-2.6525 -3.00313,-5.28333 -1.36154,-2.63083 -3.87355,-6.14411 -5.58225,-7.80729 l -3.10672,-3.02397 -5.41804,4.95177 c -2.97991,2.72348 -6.98189,5.82609 -8.89327,6.89469 l -3.47525,1.94291 -0.0332,22.41261 c -0.0183,12.32693 0.25791,22.86261 0.6137,23.41261 0.35578,0.55 0.67396,3.25 0.70706,6 0.0331,2.75 0.30633,6.575 0.60717,8.5 1.02568,6.56295 0.91363,13.92351 -0.23298,15.30509 -0.62942,0.75841 -0.81731,1.70603 -0.41751,2.10582 1.37582,1.37583 1.08999,6.58909 -0.36127,6.58909 -1.77845,0 -1.74798,0.28585 0.44975,4.21958 1.008,1.80423 2.12746,4.77149 2.48769,6.5939 0.60038,3.03732 0.4789,3.2576 -1.45757,2.64299 -1.32262,-0.41978 -2.42626,-0.16308 -2.95153,0.68652 -0.68465,1.10737 -1.16101,1.03508 -2.589438,-0.39299 -1.07846,-1.07818 -1.28429,-1.75 -0.53617,-1.75 0.66786,0 1.21429,-0.45 1.21429,-1 0,-0.55 -0.675,-1 -1.5,-1 -0.82536,0 -1.5,0.8854 -1.5,1.96862 0,1.3464 -0.47812,1.78514 -1.51273,1.38812 -2.70409,-1.03766 -4.48727,1.6046 -4.48727,6.64907 0,3.91913 -0.35345,4.85336 -1.999,5.28368 -1.09946,0.28751 -2.23822,0.13569 -2.5306,-0.33738 z m 14.514288,-16.70211 c -0.008,-0.4125 -0.451528,-1.425 -0.984688,-2.25 -0.78387,-1.21296 -0.9723,-1.06944 -0.98469,0.75 -0.008,1.2375 0.43469,2.25 0.98469,2.25 0.55,0 0.993108,-0.3375 0.984688,-0.75 z m 141.01531,-68.30902 c 0,-0.51754 -0.375,-0.94098 -0.83333,-0.94098 -0.45834,0 -0.83334,0.65521 -0.83334,1.45601 0,0.80081 0.375,1.22425 0.83334,0.94098 0.45833,-0.28326 0.83333,-0.93847 0.83333,-1.45601 z m -0.25,64.84238 c -3.03189,-3.79445 -1.53798,-13.23031 1.91057,-12.06761 1.27579,0.43014 1.78039,-0.0769 6.79362,-6.82637 2.63298,-3.54488 3.15158,-4.88361 2.24355,-5.79164 -0.90803,-0.90803 -0.88619,-1.36324 0.0945,-1.96933 0.70267,-0.43428 0.9877,-1.53834 0.63465,-2.45836 -0.46281,-1.20603 -0.10239,-1.67005 1.29714,-1.67005 1.06591,0 2.52087,-1.08908 3.23324,-2.42017 0.71238,-1.33109 1.85536,-2.20523 2.53994,-1.94253 0.68459,0.2627 1.51365,-0.22322 1.84236,-1.07983 0.32871,-0.85661 1.28678,-1.55747 2.12905,-1.55747 0.84226,0 1.53138,-0.5671 1.53138,-1.26022 0,-0.69312 1.125,-2.47348 2.5,-3.95635 1.375,-1.48288 2.5,-3.09604 2.5,-3.5848 0,-1.40655 3.49734,-4.19863 5.25919,-4.19863 0.89968,0 1.74177,-0.98617 1.92126,-2.25 0.17575,-1.2375 1.33205,-2.69421 2.56955,-3.23713 1.2375,-0.54292 2.25,-1.3334 2.25,-1.75661 0,-0.42322 1.125,-1.74766 2.5,-2.94321 1.375,-1.19555 2.5,-2.60546 2.5,-3.13314 0,-0.52768 0.74757,-1.50606 1.66128,-2.17418 1.47933,-1.08171 1.52082,-1.80567 0.37883,-6.61024 -0.70535,-2.96752 -1.35749,-7.2594 -1.44921,-9.53751 -0.0917,-2.2781 -0.66024,-4.7531 -1.26336,-5.5 -0.9884,-1.22399 -2.33699,-5.90656 -2.83912,-9.85798 -0.98912,-7.7835 -1.6076,-8.84434 -5.54415,-9.50942 -2.12296,-0.35867 -4.7789,-0.36045 -5.9021,-0.004 -1.12319,0.35652 -2.04217,0.22635 -2.04217,-0.28923 0,-0.51559 -2.1375,-1.4677 -4.75,-2.1158 -2.6125,-0.64811 -6.1,-1.56966 -7.75,-2.04789 -7.71438,-2.2359 -9.2963,-2.25082 -9.98082,-0.0941 -0.65677,2.0693 -3.51918,2.93184 -3.51918,1.06044 0,-0.55 -0.57499,-1 -1.27776,-1 -0.70277,0 -2.04836,-0.9 -2.99021,-2 -0.94185,-1.1 -2.40636,-2 -3.25447,-2 -1.98544,0 -3.50792,-3.99062 -2.35939,-6.18426 0.485,-0.92634 0.88183,-2.81228 0.88183,-4.19098 0,-1.3787 0.43035,-2.77269 0.95633,-3.09777 0.52598,-0.32507 0.7203,-1.20611 0.43182,-1.95786 -0.28847,-0.75176 -0.04,-1.66626 0.55213,-2.03222 0.59215,-0.36597 1.41033,0.22665 1.81818,1.31692 0.7287,1.94801 0.786,1.944 3.30967,-0.23135 1.41248,-1.21752 2.37725,-2.78635 2.14394,-3.48627 -0.25025,-0.75074 0.24188,-1.14211 1.20009,-0.9544 0.93187,0.18255 2.15526,-0.73409 2.86988,-2.1503 1.61495,-3.20045 10.81976,-10.18315 12.5605,-9.52831 0.73977,0.2783 1.55224,-0.29684 1.8096,-1.28099 0.25688,-0.98232 1.78895,-2.67168 3.40459,-3.75413 1.61563,-1.08244 2.93881,-2.30558 2.94039,-2.71808 0.002,-0.4125 0.64959,-0.75 1.44001,-0.75 1.70147,0 1.60359,-1.03938 -1.83635,-19.5 -0.20498,-1.1 -0.863,-4.025 -1.46228,-6.5 -0.59929,-2.475 -1.10061,-5.9625 -1.11405,-7.75 -0.023,-3.05228 0.18848,-3.25 3.47555,-3.25 3.4261,0 3.5,0.0858 3.5,4.06574 0,2.23616 0.46139,4.92786 1.02531,5.98155 0.56392,1.05369 1.17988,4.12183 1.3688,6.81809 0.18893,2.69626 1.07754,6.3737 1.9747,8.17209 0.89715,1.79839 1.63119,3.87567 1.63119,4.61617 0,0.7405 0.4645,1.34636 1.03222,1.34636 1.15598,0 2.9679,-4.10023 2.30807,-5.22295 -0.23369,-0.39762 -0.63952,-2.39933 -0.90184,-4.44825 -0.26233,-2.04891 -0.98525,-5.4218 -1.60648,-7.49531 -0.84871,-2.83271 -0.84085,-4.11786 0.0316,-5.16908 0.89497,-1.07837 0.82809,-1.67544 -0.29178,-2.60484 -0.79911,-0.66319 -1.20651,-1.8479 -0.90536,-2.63268 0.30115,-0.78479 0.0494,-1.42689 -0.55944,-1.42689 -0.60885,0 -1.10699,-0.39199 -1.10699,-0.87109 0,-0.4791 2.97872,-0.93569 6.61937,-1.01463 6.41379,-0.13908 6.60562,-0.0716 6.17634,2.17404 -0.24366,1.27466 0.10258,2.82724 0.76943,3.45018 0.66686,0.62293 1.09575,2.61633 0.95309,4.42977 -0.14266,1.81344 0.46669,4.40527 1.3541,5.75963 0.88741,1.35436 1.46755,3.32383 1.28919,4.3766 -0.23421,1.38249 0.0455,1.6828 1.0071,1.08124 0.73226,-0.45808 1.78138,-0.87049 2.33138,-0.91646 1.87659,-0.15685 4.844452,-1.81373 6.861112,-3.83039 1.512,-1.512 2.12494,-1.68074 2.45948,-0.67711 0.31955,0.95863 0.90898,0.72247 2.08363,-0.8348 0.95212,-1.26226 2.92564,-2.26692 4.71304,-2.39928 2.01808,-0.14944 3.04197,-0.74327 2.97887,-1.7277 -0.0611,-0.95371 0.99645,-1.62327 2.90387,-1.83849 1.65,-0.18616 3.61037,-0.84349 4.35638,-1.46073 0.74601,-0.61723 4.67321,-1.24465 8.72712,-1.39425 6.47559,-0.23898 7.61642,-0.008 9.39362,1.89929 1.11259,1.19422 2.02288,2.48536 2.02288,2.8692 0,0.38384 -2.05121,1.00549 -4.55825,1.38144 -5.51532,0.82708 -6.34975,2.45963 -3.38515,6.62303 2.19773,3.08643 2.20134,3.13715 0.17753,2.49482 -1.1362,-0.36062 -2.35524,-0.18736 -2.70899,0.38501 -0.35375,0.57238 -1.35133,1.04068 -2.21686,1.04068 -0.86553,0 -2.4005,0.95332 -3.41104,2.11848 -1.06077,1.22308 -2.48399,1.87034 -3.36729,1.53138 -0.94527,-0.36273 -1.52995,-0.0258 -1.52995,0.88153 0,0.80773 -0.675,1.46861 -1.5,1.46861 -0.825,0 -1.44671,-0.3375 -1.38158,-0.75 0.35985,-2.27903 -0.48513,-1.96058 -3.87287,1.4596 -2.06495,2.08472 -5.92241,4.85068 -8.57213,6.14658 -2.64972,1.29589 -5.05836,2.98339 -5.35254,3.75 -0.29417,0.7666 -1.35875,1.39382 -2.36572,1.39382 -1.104202,0 -1.802542,0.69457 -1.759492,1.75 0.0392,0.9625 -0.26041,2.53371 -0.66591,3.49157 -0.49781,1.17593 -0.20671,1.94516 0.89629,2.36843 1.05846,0.40617 1.423312,1.28925 1.03636,2.50843 -0.32845,1.03486 -0.21655,1.88157 0.248672,1.88157 0.46522,0 0.72804,1.9125 0.58405,4.25 -0.144,2.3375 0.0152,4.925 0.35376,5.75 1.08564,2.64547 1.2438,6 0.28289,6 -0.51248,0 -0.93178,0.64359 -0.93178,1.43019 0,1.13901 0.6617,1.23951 3.25,0.49361 2.58642,-0.74537 3.49164,-0.60858 4.43347,0.66994 0.6509,0.88359 1.67392,1.30341 2.27338,0.93293 1.16042,-0.71718 7.04315,1.49316 7.04315,2.64635 0,0.37664 1.4625,0.69637 3.25,0.7105 6.71325,0.0531 9.24372,0.75773 9.61658,2.6779 0.20162,1.0383 1.41429,3.42966 2.69482,5.31412 2.51898,3.70702 2.42326,8.16773 -0.24141,11.25043 -0.77301,0.89429 -1.67078,3.36929 -1.99503,5.5 -0.32425,2.13072 -1.35028,4.77403 -2.28006,5.87403 -0.92978,1.1 -3.16716,4.3625 -4.97195,7.25 -1.80479,2.8875 -3.69865,5.25 -4.20858,5.25 -0.50993,0 -1.22263,0.7875 -1.58378,1.75 -0.36116,0.9625 -1.30768,2.23831 -2.10338,2.83513 -1.94503,1.45887 -2.31874,7.4162 -0.57463,9.16031 1.62249,1.62248 1.82586,5.5855 0.42131,8.20992 -0.77053,1.43975 -0.56554,1.93124 0.97333,2.33366 1.45665,0.38093 1.9377,1.35677 1.90301,3.86039 -0.0255,1.84282 0.20296,4.45309 0.50777,5.80059 0.30481,1.3475 0.5558,4.9475 0.55775,8 0.002,3.0525 0.0136,6.45 0.0258,7.55 0.0411,3.68769 -2.28573,14.1818 -3.51812,15.8672 -0.71898,0.98326 -1.89019,1.41011 -2.85414,1.04021 -1.37023,-0.5258 -1.56577,-1.86376 -1.20829,-8.26737 0.48932,-8.76507 -1.78826,-20.14004 -4.03257,-20.14004 -0.81308,0 -1.37843,-1.05232 -1.37843,-2.56574 0,-2.92895 -1.62765,-6.43426 -2.98768,-6.43426 -1.00069,0 -0.75372,2.34352 1.21194,11.5 1.415,6.59137 0.40997,16.5 -1.67358,16.5 -1.01322,0 -1.72398,-3.94925 -3.734432,-20.75 -0.0823,-0.6875 -0.52458,-1.25 -0.98292,-1.25 -0.45833,0 -0.83333,-1.35 -0.83333,-3 0,-1.65 -0.45,-3 -1,-3 -0.55,0 -1,-0.66536 -1,-1.47858 0,-0.84195 -2.04519,0.57788 -4.75,3.29758 -2.6125,2.62688 -7.45,6.77718 -10.75,9.22289 -3.3,2.44571 -6.225,4.73229 -6.5,5.08128 -0.275,0.349 -2.75,2.31116 -5.5,4.36035 -5.68185,4.23389 -12.46107,11.4187 -12.48438,13.2313 -0.009,0.66815 -0.90999,1.69347 -2.00312,2.27849 -1.09312,0.58502 -3.56253,3.52585 -5.48758,6.53518 -1.92504,3.00933 -3.84317,5.46555 -4.2625,5.45826 -0.41933,-0.007 -1.54992,-0.99881 -2.51242,-2.20339 z m 61.525032,-51.76954 c -0.43146,-3.21676 -0.78331,-3.91561 -1.27117,-2.52482 -0.55835,1.59174 0.8871,7.95337 1.63678,7.20369 0.12704,-0.12703 -0.0375,-2.23253 -0.36561,-4.67887 z m -6.885072,-35.54838 c -0.83186,-4.93099 -1.82241,-11.17982 -2.20122,-13.88629 -0.39877,-2.84907 -1.28211,-5.11688 -2.09809,-5.38645 -1.03058,-0.34047 -1.21036,0.0414 -0.66894,1.42085 1.24441,3.17055 2.67564,13.41992 2.02172,14.47798 -0.33858,0.54784 -0.1967,1.53887 0.31531,2.20227 0.512,0.66341 1.51284,3.3566 2.22408,5.98488 0.71124,2.62827 1.43411,4.63772 1.60639,4.46544 0.17228,-0.17228 -0.36738,-4.34768 -1.19925,-9.27868 z m 15.262712,-5.14611 c -1.02375,-1.02375 4.45208,-6.31933 6.53442,-6.31933 0.9971,0 1.81291,-0.47656 1.81291,-1.05902 0,-0.58246 0.45,-0.7809 1,-0.44098 1.4555,0.89955 1.22781,-2.07158 -0.25,-3.26218 -1.18565,-0.95523 -11.4975,-1.4433 -12.91891,-0.61147 -0.36791,0.2153 -4.8e-4,1.73137 0.81649,3.36904 0.81698,1.63767 1.52397,4.33366 1.5711,5.99109 0.0471,1.65744 0.5422,3.01352 1.10017,3.01352 0.55796,0 0.70818,-0.3063 0.33382,-0.68067 z m -40.388342,-33.72166 c 0.29002,0.29001 2.12102,0.72497 4.0689,0.96656 l 3.5416,0.43927 -0.57896,-3.75175 c -0.64394,-4.17288 -1.34286,-5.38683 -2.01611,-3.50175 -0.24553,0.6875 -0.94358,1.25 -1.55121,1.25 -1.4595,0 -7.71297,4.28023 -7.72172,5.28518 -0.004,0.43186 0.834,0.33519 1.86169,-0.21481 1.02768,-0.55 2.1058,-0.76272 2.39581,-0.4727 z m 17.00473,-2.84767 c -0.29735,-2.3375 -0.92791,-5.0049 -1.40126,-5.92756 -0.47334,-0.92265 -0.5891,-2.38516 -0.25723,-3.25 0.39558,-1.03084 0.0458,-1.57244 -1.0154,-1.57244 -1.33214,0 -1.51231,0.7526 -1.01744,4.25 0.81352,5.74932 2.3973,10.75 3.40467,10.75 0.45501,0 0.584,-1.9125 0.28666,-4.25 z m 3.73094,-47.80902 c 0,-0.58246 -0.45,-0.7809 -1,-0.44098 -0.55,0.33992 -1,0.81648 -1,1.05902 0,0.24254 0.45,0.44098 1,0.44098 0.55,0 1,-0.47656 1,-1.05902 z m 41.000002,0 c 0,-0.58246 -0.45,-0.7809 -1,-0.44098 -0.55,0.33992 -1,0.81648 -1,1.05902 0,0.24254 0.45,0.44098 1,0.44098 0.55,0 1,-0.47656 1,-1.05902 z m 156.99921,168.55902 c -4e-4,-0.55 -1.3504,-3.8529 -3,-7.33979 -1.6496,-3.48688 -2.9992,-7.12312 -2.9992,-8.08052 0,-0.9574 -1.1231,-3.9545 -2.4958,-6.66021 -1.3727,-2.70571 -2.4977,-5.33405 -2.5,-5.84074 0,-0.50669 -0.6517,-1.63677 -1.4432,-2.51129 -0.8455,-0.93433 -1.5312,-4.05964 -1.6626,-7.57874 -0.123,-3.29379 -0.5476,-6.21371 -0.9434,-6.48871 -0.3959,-0.275 -0.9993,-2.525 -1.341,-5 -1.1423,-8.27486 -1.8672,-11.49043 -2.877,-12.76223 -0.9223,-1.16162 -1.8151,-5.25173 -2.0639,-9.45538 -0.1327,-2.24165 -4.5447,-3.18796 -9.0559,-1.94235 -2.5218,0.6963 -3.6481,0.64409 -3.9894,-0.18492 -0.3261,-0.79217 -0.8041,-0.6838 -1.5212,0.34488 -0.8639,1.23936 -1.3984,1.28133 -3.0761,0.24153 -1.8243,-1.13065 -2.0305,-1.01691 -2.0305,1.11972 0,1.30802 -0.9268,5.24933 -2.0595,8.75848 -1.1328,3.50915 -2.2361,7.50527 -2.4519,8.88027 -0.2157,1.375 -0.683,3.625 -1.0383,5 -0.3553,1.375 -0.8109,3.99843 -1.0123,5.82985 -0.8628,7.84539 -2.544,14.62977 -4.0331,16.27521 -0.8804,0.9729 -1.3109,2.23797 -0.9566,2.81126 1.1328,1.83288 -1.1562,4.57628 -4.9685,5.95481 -8.441,3.05232 -9.1212,-3.77543 -3.3113,-33.23761 2.084,-10.56822 2.0942,-11.00739 0.3712,-16 -0.9744,-2.82344 -2.5069,-5.80852 -3.4057,-6.63352 -0.8987,-0.825 -1.7083,-2.175 -1.7991,-3 -0.4164,-3.78232 -2.1624,-11.16083 -2.7894,-11.78786 -0.3826,-0.38251 -1.1341,0.0883 -1.6702,1.04619 -0.5361,0.95792 -1.7557,1.74167 -2.7103,1.74167 -1.6355,0 -1.6497,0.78319 -0.2462,13.5648 1.1912,10.84773 1.2378,13.72041 0.2326,14.34164 -0.6913,0.42726 -1.1799,1.1856 -1.0858,1.6852 0.5147,2.7306 -0.1751,4.30357 -1.6406,3.7412 -1.8816,-0.72202 -1.6559,2.39448 0.325,4.48859 1.8725,1.97948 1.6258,5.53678 -0.3318,4.78556 -0.87,-0.33385 -2.67,-0.60699 -4,-0.60699 -1.4963,0 -2.4182,-0.5791 -2.4182,-1.51905 0,-1.1025 -0.6557,-1.3545 -2.3909,-0.91897 -2.4035,0.60324 -4.4566,-0.92018 -2.7017,-2.00475 0.8757,-0.54122 0.8062,-2.50424 -0.3559,-10.05723 -0.2539,-1.65 -0.556,-8.16881 -0.6714,-14.48624 -0.1313,-7.18897 -0.6488,-11.92529 -1.3833,-12.65978 -0.898,-0.89804 -2.6756,-0.86007 -7.5722,0.16175 -4.8746,1.01725 -6.5804,1.0553 -7.1616,0.15977 -0.5828,-0.89782 -0.946,-0.89337 -1.5376,0.0188 -0.5735,0.88424 -1.93174,0.93436 -5.23105,0.19306 -3.08745,-0.6937 -4.56462,-0.67661 -4.80871,0.0557 -0.19378,0.58132 -1.17621,1.05694 -2.18319,1.05694 -1.68823,0 -1.79165,0.79923 -1.32745,10.25833 0.27688,5.64209 0.0768,12.6056 -0.44464,15.47449 -0.52144,2.86888 -0.675,5.48921 -0.34126,5.82296 0.33374,0.33374 0.6678,2.17325 0.74235,4.08779 0.10611,2.72508 -0.19242,3.35515 -1.37471,2.90146 -0.83063,-0.31874 -2.05336,-0.12879 -2.71717,0.42212 -1.61629,1.34141 -6.60044,-0.95723 -6.4337,-2.96715 0.0684,-0.825 0.0351,-1.725 -0.0741,-2 -0.47516,-1.19695 -1.05245,-5.94023 -1.39962,-11.5 -0.20606,-3.3 -0.8922,-7.88372 -1.52475,-10.18604 -0.63255,-2.30232 -1.08721,-4.55232 -1.01035,-5 0.0769,-0.44768 0.0715,-1.93896 -0.0119,-3.31396 l -0.15169,-2.5 -1.96673,2.36078 c -1.0817,1.29844 -2.01107,1.97344 -2.06527,1.5 -0.0542,-0.47343 -0.1667,-1.98578 -0.25,-3.36078 -0.11675,-1.927 -0.72446,-2.52485 -2.65146,-2.60843 -4.51391,-0.19578 -4.91721,-0.3688 -6.15747,-2.64157 -1.71629,-3.1451 -2.79793,-11.89646 -1.41641,-11.45993 0.59063,0.18662 1.52075,1.32888 2.06692,2.53835 0.55412,1.22707 1.58476,1.97197 2.33179,1.68531 0.7363,-0.28255 2.23022,-0.51373 3.31981,-0.51373 1.30827,0 1.90243,-0.59432 1.74952,-1.75 -0.36159,-2.73289 2.16326,-7.16519 3.73751,-6.56109 1.12051,0.42997 1.31555,-0.91272 1.0283,-7.07915 -0.26664,-5.72419 -0.0353,-7.60976 0.93347,-7.60976 1.01505,0 0.98399,-0.58267 -0.14659,-2.75 -1.88467,-3.6129 -1.82126,-6.17882 0.20813,-8.42126 1.48406,-1.63986 1.49126,-1.82874 0.0698,-1.82874 -1.27928,0 -1.42218,-0.56833 -0.74051,-2.94518 0.46456,-1.61984 0.49602,-3.08234 0.0699,-3.25 -0.95096,-0.37414 1.12227,-13.24417 2.75785,-17.11992 0.65338,-1.5483 1.18797,-3.21997 1.18797,-3.71482 0,-0.9369 3.23473,-2.97008 4.72532,-2.97008 0.47125,0 0.83833,3.44977 0.81574,7.66616 -0.0283,5.27451 0.34891,7.7963 1.20894,8.08333 0.6875,0.22945 1.25,1.22968 1.25,2.22273 0,1.10582 0.67821,1.75173 1.75,1.66667 1.61167,-0.12791 1.74088,1.30373 1.63461,18.11111 -0.10852,17.16338 -0.004,18.25397 1.75,18.31667 6.31471,0.22568 11.5657,0.0653 12.8654,-0.39287 0.825,-0.29085 4.1216,-0.82307 7.3257,-1.18272 4.5303,-0.50851 5.7015,-0.97779 5.2669,-2.11035 -0.3074,-0.80104 0.12,-1.71696 0.9498,-2.03537 1.0223,-0.39231 1.196,-0.95565 0.5387,-1.7476 -0.5334,-0.64278 -0.7845,-4.30272 -0.5579,-8.13322 0.2266,-3.8305 0.4094,-8.47274 0.4062,-10.31609 0,-1.84335 0.4707,-3.92566 1.0531,-4.62734 0.5823,-0.70168 1.162,-3.91849 1.2881,-7.14845 0.1262,-3.22996 0.6794,-5.91152 1.2294,-5.95903 0.55,-0.0475 1.7203,-0.40738 2.6008,-0.79973 0.8804,-0.39235 2.21,-0.57849 2.9545,-0.41363 0.9121,0.20194 1.3686,-0.74428 1.3992,-2.90027 0.025,-1.76 0.6411,-3.785 1.369,-4.5 1.0957,-1.0762 1.2186,-0.58235 0.7139,2.86863 -0.3354,2.29275 -0.2382,4.39826 0.2159,4.67891 0.4541,0.28065 0.7707,8.7101 0.7037,18.73211 -0.1387,20.70782 0.094,22.90951 2.4036,22.73052 0.9017,-0.0699 2.7644,-0.0414 4.1394,0.0632 2.3644,0.17993 2.3997,0.26627 0.6499,1.59191 -1.8974,1.43747 -1.4899,3.53473 0.6869,3.53473 1.7377,0 4.6632,3.68569 4.6632,5.87507 0,1.01871 -1.2375,3.11524 -2.75,4.65894 -1.8257,1.86334 -2.1618,2.59197 -1,2.16775 1.1774,-0.42992 1.75,-0.14366 1.75,0.87494 0,1.20277 0.7565,1.372 3.6808,0.82341 2.0244,-0.37979 4.5416,-0.73768 5.5937,-0.79532 1.9826,-0.10861 4.6804,-5.97346 4.7104,-10.24048 0.01,-1.17463 0.6873,-3.42463 1.5089,-5 0.8216,-1.57537 1.4966,-3.65181 1.5,-4.61431 0,-0.9625 0.358,-1.75 0.7879,-1.75 0.4299,0 1.3748,-2.1375 2.0998,-4.75 0.7249,-2.6125 1.9154,-6.1 2.6455,-7.75 2.4172,-5.46284 8.6877,-32.34362 7.858,-33.6861 -0.2767,-0.44764 -0.063,-0.8139 0.4742,-0.8139 0.5375,0 1.6532,-0.2594 2.4794,-0.57645 1.0231,-0.39259 1.6074,0.14956 1.8318,1.69967 0.281,1.94023 0.6689,1.61354 2.6289,-2.21382 2.5257,-4.93195 5.2867,-7.19737 7.6612,-6.2862 2.0319,0.77975 1.9425,2.16702 -0.4605,7.14066 -2.4103,4.9887 -2.4116,5.00681 -0.3906,5.41282 1.3148,0.26412 1.6352,1.8879 1.75,8.8684 0.1032,6.27242 0.606,9.25513 1.8906,11.21482 0.9625,1.46835 1.75,3.72057 1.75,5.00492 0,1.28435 0.3989,2.76268 0.8865,3.28518 1.1761,1.2603 3.35,14.25832 2.5903,15.48755 -0.3272,0.52935 -0.2308,1.52495 0.2142,2.21245 0.4449,0.6875 1.259,4.13985 1.809,7.67189 0.55,3.53204 1.5625,6.60704 2.25,6.83333 0.6875,0.2263 1.25,-0.2615 1.25,-1.08399 0,-1.59877 5.9142,-3.03089 9.5,-2.30042 1.1,0.22409 4.2351,0.7082 6.9668,1.0758 2.7317,0.3676 5.4317,1.03596 6,1.48524 1.4912,1.17896 7.5332,1.87787 7.5332,0.8714 0,-0.46769 1.6875,-0.59571 3.75,-0.28448 2.0625,0.31123 4.6064,0.5696 5.6532,0.57416 1.0468,0.005 2.8344,0.66051 3.9725,1.45768 1.1381,0.79716 2.7692,1.44939 3.6246,1.44939 2.4403,0 4.7736,3.32819 3.8991,5.56183 -0.4174,1.06599 -0.7905,1.42294 -0.8291,0.79321 -0.039,-0.62974 -1.8703,-1.31663 -4.0703,-1.52643 -3.8496,-0.36712 -4.0043,-0.26766 -4.1152,2.64496 -0.063,1.66454 -0.019,3.92643 0.098,5.02643 0.1172,1.1 -0.132,1.66152 -0.5537,1.24782 -0.4216,-0.4137 -1.5709,-0.0243 -2.5539,0.86529 -1.5709,1.42167 -1.9649,1.43986 -3.2544,0.1503 -0.9355,-0.93548 -2.8539,-1.33803 -5.2939,-1.11083 -5.9812,0.55698 -15.4301,0.44936 -17.4729,-0.199 -1.0196,-0.32359 -1.8538,-0.10803 -1.8538,0.47903 0,0.58707 -0.6609,1.06739 -1.4686,1.06739 -0.8339,0 -1.241,-0.59313 -0.942,-1.37242 0.3942,-1.02713 -0.1798,-1.24496 -2.2814,-0.86581 -4.8122,0.86821 -5.1233,1.61797 -3.5164,8.47607 0.807,3.44419 1.8033,6.95446 2.2142,7.80062 0.4108,0.84615 1.0784,3.54615 1.4836,6 0.4052,2.45384 1.0738,4.91154 1.4858,5.46154 0.4119,0.55 1.0653,2.31967 1.4518,3.93259 0.3865,1.61293 1.5736,4.73495 2.6379,6.93783 1.0643,2.20288 1.9351,4.79416 1.9351,5.75839 0,0.96424 0.4932,2.058 1.0961,2.43059 0.6029,0.3726 0.8899,2.08241 0.6379,3.7996 -0.3105,2.11572 0.061,3.51789 1.1539,4.34978 1.4482,1.10277 1.4147,1.23085 -0.329,1.25942 -1.9215,0.0315 -1.9215,0.0478 0,1.61344 1.6574,1.35047 1.6853,1.50121 0.1911,1.03138 -1.8508,-0.58193 -2.5277,1.78831 -0.8133,2.84784 2.8854,1.78331 5.3849,11.53914 2.9563,11.53914 -0.6088,0 -0.8638,0.63374 -0.5666,1.4083 0.3504,0.91317 -0.403,1.67011 -2.143,2.15294 -4.0042,1.11116 -9.1833,1.07662 -9.1842,-0.0612 z m -57.0145,-37.75 c 0.01,-0.4125 -0.4347,-0.75 -0.9847,-0.75 -0.55,0 -0.9931,1.0125 -0.9847,2.25 0.012,1.81944 0.2008,1.96296 0.9847,0.75 0.5332,-0.825 0.9763,-1.8375 0.9847,-2.25 z m -1.9847,-7.75 c 0,-0.55 -0.4766,-1 -1.059,-1 -0.5825,0 -0.7809,0.45 -0.441,1 0.3399,0.55 0.8165,1 1.059,1 0.2426,0 0.441,-0.45 0.441,-1 z m 1,-26.05902 c 0,-0.58246 -0.45,-0.7809 -1,-0.44098 -0.55,0.33992 -1,0.81648 -1,1.05902 0,0.24254 0.45,0.44098 1,0.44098 0.55,0 1,-0.47656 1,-1.05902 z m -84.01532,-18.19098 c -0.008,-0.6875 -0.40217,-1.86054 -0.875,-2.60676 -0.69876,-1.10278 -1.00983,-1.11383 -1.66174,-0.059 -0.47076,0.76171 -0.31329,1.46066 0.38123,1.69217 0.6508,0.21694 0.92892,0.80599 0.61803,1.30902 -0.31088,0.50302 -0.0887,0.91459 0.49377,0.91459 0.58246,0 1.05213,-0.5625 1.04371,-1.25 z m 151.01532,-1.75 c 0,-0.55 -0.45,-1 -1,-1 -0.55,0 -1,0.45 -1,1 0,0.55 0.45,1 1,1 0.55,0 1,-0.45 1,-1 z m -36.5,-1.5 c 1.4099,0 1.9322,-0.59006 1.7702,-2 -0.1264,-1.1 -0.5226,-4.925 -0.8804,-8.5 -0.3578,-3.575 -0.765,-7.625 -0.9047,-9 -0.3868,-3.80519 -1.6214,-7.03381 -2.4854,-6.4998 -0.643,0.39735 -1.8487,4.78498 -2.4733,8.9998 -0.082,0.55 -0.9082,2.67305 -1.8373,4.71788 -2.018,4.44188 -2.0905,5.45257 -0.4391,6.12266 0.8098,0.32859 0.8978,0.79812 0.25,1.33333 -0.55,0.45437 -1.1019,1.80872 -1.2264,3.00967 -0.163,1.57153 0.3976,2.28661 2,2.55128 1.2245,0.20225 2.6764,0.11966 3.2264,-0.18354 0.55,-0.30321 1.9,-0.55128 3,-0.55128 z m -136.50001,-30.5 c -0.90129,-0.58246 -1.02463,-0.97549 -0.30902,-0.98469 0.65504,-0.008 1.4691,0.43469 1.80902,0.98469 0.7673,1.24153 0.42112,1.24153 -1.5,0 z"
         style="fill:#000000" />
    </g>
  </g>
</svg>
